<svg width="14" height="8" viewBox="0 0 14 8" fill="none" xmlns="http://www.w3.org/2000/svg">
<path d="M7.42139 7.36982L13.0714 1.70982C13.1651 1.61685 13.2395 1.50625 13.2903 1.38439C13.341 1.26253 13.3672 1.13183 13.3672 0.999816C13.3672 0.867804 13.341 0.737098 13.2903 0.615239C13.2395 0.49338 13.1651 0.382779 13.0714 0.289816C12.884 0.103565 12.6306 -0.000976594 12.3664 -0.000976606C12.1022 -0.000976617 11.8488 0.103565 11.6614 0.289816L6.66139 5.23981L1.71139 0.289815C1.52403 0.103564 1.27058 -0.000977086 1.00639 -0.000977098C0.742205 -0.000977109 0.488753 0.103564 0.301391 0.289815C0.206902 0.38243 0.131732 0.492875 0.0802355 0.61475C0.0287389 0.736626 0.00194069 0.867508 0.00139137 0.999815C0.00194068 1.13212 0.0287389 1.26301 0.0802354 1.38488C0.131732 1.50676 0.206902 1.6172 0.301391 1.70982L5.95139 7.36982C6.04503 7.47132 6.15868 7.55233 6.28518 7.60774C6.41168 7.66314 6.54829 7.69175 6.68639 7.69175C6.82449 7.69175 6.9611 7.66314 7.0876 7.60774C7.2141 7.55233 7.32775 7.47132 7.42139 7.36982Z" fill="#5250F9"/>
</svg>
