<svg width="28" height="28" viewBox="0 0 28 28" fill="none" xmlns="http://www.w3.org/2000/svg">
<circle cx="14" cy="14" r="13" stroke="#9B9B9B" stroke-width="2"/>
<path fill-rule="evenodd" clip-rule="evenodd" d="M18.193 9.80701C17.665 9.27906 16.8091 9.27906 16.2811 9.80701L14 12.0881L11.7189 9.80701C11.1909 9.27906 10.335 9.27906 9.80702 9.80701C9.27907 10.335 9.27906 11.1909 9.80702 11.7189L12.0881 14L9.80702 16.2811C9.27907 16.809 9.27907 17.665 9.80702 18.193C10.335 18.7209 11.1909 18.7209 11.7189 18.193L14 15.9119L16.2811 18.193C16.8091 18.7209 17.665 18.7209 18.193 18.193C18.7209 17.665 18.7209 16.809 18.193 16.2811L15.9119 14L18.193 11.7189C18.7209 11.1909 18.7209 10.335 18.193 9.80701Z" fill="#9B9B9B"/>
</svg>
