<svg width="18" height="19" viewBox="0 0 18 19" fill="none" xmlns="http://www.w3.org/2000/svg">
<path d="M18 15.0237C18 15.5118 17.6043 15.9075 17.1163 15.9075L0.88372 15.9075C0.395655 15.9075 0 15.5118 0 15.0237C0 14.5357 0.395655 14.14 0.883721 14.14H0.9L0.9 7.98137C0.9 3.57337 4.527 0.000488281 9 0.000488281C13.473 0.000488281 17.1 3.57337 17.1 7.98137V14.14H17.1163C17.6043 14.14 18 14.5357 18 15.0237ZM2.7 14.14L15.3 14.14V7.98137C15.3 4.54988 12.4794 1.76793 9 1.76793C5.5206 1.76793 2.7 4.54988 2.7 7.98137L2.7 14.14ZM6.97604 17.7563C6.73121 17.2613 7.19772 16.7912 7.75 16.7912H10.25C10.8023 16.7912 11.2688 17.2613 11.024 17.7563C10.9155 17.9756 10.7699 18.1778 10.591 18.3534C10.169 18.7677 9.59674 19.0005 9 19.0005C8.40326 19.0005 7.83097 18.7677 7.40901 18.3534C7.23014 18.1778 7.08449 17.9756 6.97604 17.7563Z" fill="currentColor"/>
</svg>
