<svg width="12" height="12" viewBox="0 0 12 12" fill="none" xmlns="http://www.w3.org/2000/svg">
<path fill-rule="evenodd" clip-rule="evenodd" d="M7.62513 7.24461C6.56181 8.28369 4.8317 8.28369 3.76837 7.24461C2.70527 6.20552 2.70505 4.51487 3.76837 3.47579C4.8317 2.4367 6.56181 2.43692 7.62513 3.47579C8.68846 4.51487 8.68846 6.20552 7.62513 7.24461M9.20041 1.93643C7.26847 0.0485344 4.12504 0.0485344 2.1931 1.93643C0.261154 3.82432 0.261154 6.89607 2.1931 8.78396C3.79043 10.3449 6.21516 10.6137 8.09943 9.59381L9.62971 11.089C10.1624 11.6097 11.0265 11.6097 11.5594 11.089C12.0921 10.5684 12.0921 9.72399 11.5594 9.20347L10.0292 7.70809C11.0729 5.86678 10.7977 3.49734 9.20041 1.93643" fill="currentColor"/>
</svg>
